HIERARCHY
ROOT newVegas:Hips
{
	OFFSET 0.000000 96.479958 0.000000
	CHANNELS 6 Xposition Yposition Zposition Xrotation Yrotation Zrotation
	JOINT newVegas:Pelvis
	{
		OFFSET 0.000000 0.000000 0.000000
		CHANNELS 3 Xrotation Yrotation Zrotation
		JOINT newVegas:LeftUpLeg
		{
			OFFSET 18.735201 -5.666702 -4.541200
			CHANNELS 3 Xrotation Yrotation Zrotation
			JOINT newVegas:LeftLeg
			{
				OFFSET -0.021200 -31.938179 0.493100
				CHANNELS 3 Xrotation Yrotation Zrotation
				JOINT newVegas:LeftFoot
				{
					OFFSET 0.021200 -31.938179 -4.336299
					CHANNELS 3 Xrotation Yrotation Zrotation
					JOINT newVegas:LeftToeBase
					{
						OFFSET 0.943001 -26.722000 15.023500
						CHANNELS 3 Xrotation Yrotation Zrotation
						End Site
						{
							OFFSET 0.000000 30.670183 0.000000
						}
					}
				}
				JOINT newVegas:Left_PantLeg
				{
					OFFSET 0.663870 -9.044666 -1.108900
					CHANNELS 3 Xrotation Yrotation Zrotation
					End Site
					{
						OFFSET 1.415995 20.635357 0.000000
					}
				}
			}
		}
		JOINT newVegas:RightUpLeg
		{
			OFFSET -18.735201 -5.666702 -4.541200
			CHANNELS 3 Xrotation Yrotation Zrotation
			JOINT newVegas:RightLeg
			{
				OFFSET 0.018946 -31.938133 0.493100
				CHANNELS 3 Xrotation Yrotation Zrotation
				JOINT newVegas:RightFoot
				{
					OFFSET -0.018946 -31.938126 -4.336299
					CHANNELS 3 Xrotation Yrotation Zrotation
					JOINT newVegas:RightToeBase
					{
						OFFSET -0.943001 -26.722004 15.023500
						CHANNELS 3 Xrotation Yrotation Zrotation
						End Site
						{
							OFFSET 0.000000 30.670187 0.000000
						}
					}
				}
				JOINT newVegas:Right_PantLeg
				{
					OFFSET -0.661674 -9.044716 -1.108900
					CHANNELS 3 Xrotation Yrotation Zrotation
					End Site
					{
						OFFSET -1.415958 20.635269 0.000000
					}
				}
			}
		}
	}
	JOINT newVegas:Spine
	{
		OFFSET 0.000000 10.199997 -0.299500
		CHANNELS 3 Xrotation Yrotation Zrotation
		JOINT newVegas:Spine1
		{
			OFFSET 0.000000 11.900002 -1.516600
			CHANNELS 3 Xrotation Yrotation Zrotation
			JOINT newVegas:Spine2
			{
				OFFSET 0.000000 13.600006 -2.842500
				CHANNELS 3 Xrotation Yrotation Zrotation
				JOINT newVegas:Neck
				{
					OFFSET 0.000000 9.624100 -2.890100
					CHANNELS 3 Xrotation Yrotation Zrotation
					JOINT newVegas:Head
					{
						OFFSET 0.000000 14.068802 -1.351900
						CHANNELS 3 Xrotation Yrotation Zrotation
						JOINT newVegas:Hair_Back
						{
							OFFSET 0.000000 3.231903 -17.524799
							CHANNELS 3 Xrotation Yrotation Zrotation
							End Site
							{
								OFFSET 0.000000 19.849884 0.000000
							}
						}
						JOINT newVegas:Hair_Front
						{
							OFFSET 0.000000 31.260406 4.573800
							CHANNELS 3 Xrotation Yrotation Zrotation
							JOINT newVegas:Hair_Front1
							{
								OFFSET 0.000000 2.284103 11.993300
								CHANNELS 3 Xrotation Yrotation Zrotation
								JOINT newVegas:Hair_Front2
								{
									OFFSET 0.000000 2.284103 11.993300
									CHANNELS 3 Xrotation Yrotation Zrotation
									End Site
									{
										OFFSET 0.000000 12.208862 0.000000
									}
								}
							}
						}
						JOINT newVegas:Jowel
						{
							OFFSET 0.000000 -7.458206 6.864100
							CHANNELS 3 Xrotation Yrotation Zrotation
							End Site
							{
								OFFSET 0.000000 19.849884 0.000000
							}
						}
					}
				}
				JOINT newVegas:LeftShoulder
				{
					OFFSET 15.263000 10.923401 -0.547700
					CHANNELS 3 Xrotation Yrotation Zrotation
					JOINT newVegas:LeftArm
					{
						OFFSET 25.438599 -2.830597 -13.032500
						CHANNELS 3 Xrotation Yrotation Zrotation
						JOINT newVegas:LeftForeArm
						{
							OFFSET 29.960503 0.000000 0.000000
							CHANNELS 3 Xrotation Yrotation Zrotation
							JOINT newVegas:LeftHand
							{
								OFFSET 27.849251 0.000000 0.000000
								CHANNELS 3 Xrotation Yrotation Zrotation
								JOINT newVegas:LeftHandThumb1
								{
									OFFSET 4.487587 -3.305161 6.305391
									CHANNELS 3 Xrotation Yrotation Zrotation
									JOINT newVegas:LeftHandThumb2
									{
										OFFSET 5.480453 -3.164139 3.164143
										CHANNELS 3 Xrotation Yrotation Zrotation
										JOINT newVegas:LeftHandThumb3
										{
											OFFSET 5.159721 -2.978973 2.978967
											CHANNELS 3 Xrotation Yrotation Zrotation
											End Site
											{
												OFFSET 2.494507 5.926697 1.738678
											}
										}
									}
								}
								JOINT newVegas:LeftHandIndex1
								{
									OFFSET 18.578728 -0.527832 5.208049
									CHANNELS 3 Xrotation Yrotation Zrotation
									JOINT newVegas:LeftHandIndex2
									{
										OFFSET 3.192009 0.000000 0.000000
										CHANNELS 3 Xrotation Yrotation Zrotation
										JOINT newVegas:LeftHandIndex3
										{
											OFFSET 3.835129 0.000000 0.000000
											CHANNELS 3 Xrotation Yrotation Zrotation
											End Site
											{
												OFFSET -0.034599 3.816971 0.371180
											}
										}
									}
								}
								JOINT newVegas:LeftHandMiddle1
								{
									OFFSET 18.476105 0.000000 0.000000
									CHANNELS 3 Xrotation Yrotation Zrotation
									JOINT newVegas:LeftHandMiddle2
									{
										OFFSET 3.324875 0.000000 0.000000
										CHANNELS 3 Xrotation Yrotation Zrotation
										JOINT newVegas:LeftHandMiddle3
										{
											OFFSET 4.596550 0.000000 0.000000
											CHANNELS 3 Xrotation Yrotation Zrotation
											End Site
											{
												OFFSET 0.057701 4.578827 0.399218
											}
										}
									}
								}
								JOINT newVegas:LeftHandRing1
								{
									OFFSET 17.732719 0.121887 -4.201567
									CHANNELS 3 Xrotation Yrotation Zrotation
									JOINT newVegas:LeftHandRing2
									{
										OFFSET 2.733170 0.000000 0.000000
										CHANNELS 3 Xrotation Yrotation Zrotation
										JOINT newVegas:LeftHandRing3
										{
											OFFSET 3.178268 0.000000 0.000000
											CHANNELS 3 Xrotation Yrotation Zrotation
											End Site
											{
												OFFSET 0.119102 3.170624 0.185394
											}
										}
									}
								}
								JOINT newVegas:LeftHandPinky1
								{
									OFFSET 15.989624 -0.606689 -7.535461
									CHANNELS 3 Xrotation Yrotation Zrotation
									JOINT newVegas:LeftHandPinky2
									{
										OFFSET 2.538986 0.000000 0.000000
										CHANNELS 3 Xrotation Yrotation Zrotation
										JOINT newVegas:LeftHandPinky3
										{
											OFFSET 2.593102 0.000000 0.000000
											CHANNELS 3 Xrotation Yrotation Zrotation
											End Site
											{
												OFFSET -0.150902 2.584198 0.152708
											}
										}
									}
								}
							}
							JOINT newVegas:Left_Sleeve
							{
								OFFSET 0.267448 -0.649796 0.577675
								CHANNELS 3 Xrotation Yrotation Zrotation
								End Site
								{
									OFFSET 0.000000 15.991241 0.000000
								}
							}
							JOINT newVegas:Left_CapeC
							{
								OFFSET 15.715958 -8.608795 -6.935905
								CHANNELS 3 Xrotation Yrotation Zrotation
								JOINT newVegas:Left_CapeC1
								{
									OFFSET 0.000000 -8.688499 0.000000
									CHANNELS 3 Xrotation Yrotation Zrotation
									End Site
									{
										OFFSET 0.000000 8.688499 0.000000
									}
								}
							}
						}
						JOINT newVegas:Left_CapeB
						{
							OFFSET 26.118385 -8.608795 -7.079235
							CHANNELS 3 Xrotation Yrotation Zrotation
							JOINT newVegas:Left_CapeB1
							{
								OFFSET 0.000000 -8.688499 0.000000
								CHANNELS 3 Xrotation Yrotation Zrotation
								End Site
								{
									OFFSET 0.000000 8.688499 0.000000
								}
							}
						}
						JOINT newVegas:Left_CapeA
						{
							OFFSET 5.115639 -8.608795 -10.395809
							CHANNELS 3 Xrotation Yrotation Zrotation
							JOINT newVegas:Left_CapeA1
							{
								OFFSET 0.000000 -8.688499 0.000000
								CHANNELS 3 Xrotation Yrotation Zrotation
								End Site
								{
									OFFSET 0.000000 8.688499 0.000000
								}
							}
						}
					}
				}
				JOINT newVegas:RightShoulder
				{
					OFFSET -15.263000 10.923401 -0.547700
					CHANNELS 3 Xrotation Yrotation Zrotation
					JOINT newVegas:RightArm
					{
						OFFSET -25.438599 -2.830597 -13.032500
						CHANNELS 3 Xrotation Yrotation Zrotation
						JOINT newVegas:RightForeArm
						{
							OFFSET -29.960503 0.000000 0.000000
							CHANNELS 3 Xrotation Yrotation Zrotation
							JOINT newVegas:RightHand
							{
								OFFSET -27.849251 0.000000 0.000000
								CHANNELS 3 Xrotation Yrotation Zrotation
								JOINT newVegas:RightHandThumb1
								{
									OFFSET -4.487587 -3.305161 6.305391
									CHANNELS 3 Xrotation Yrotation Zrotation
									JOINT newVegas:RightHandThumb2
									{
										OFFSET -5.480453 -3.164139 3.164143
										CHANNELS 3 Xrotation Yrotation Zrotation
										JOINT newVegas:RightHandThumb3
										{
											OFFSET -5.159721 -2.978973 2.978967
											CHANNELS 3 Xrotation Yrotation Zrotation
											End Site
											{
												OFFSET -2.494507 5.926697 1.738678
											}
										}
									}
								}
								JOINT newVegas:RightHandIndex1
								{
									OFFSET -18.578728 -0.527832 5.208049
									CHANNELS 3 Xrotation Yrotation Zrotation
									JOINT newVegas:RightHandIndex2
									{
										OFFSET -3.192009 0.000000 0.000000
										CHANNELS 3 Xrotation Yrotation Zrotation
										JOINT newVegas:RightHandIndex3
										{
											OFFSET -3.835129 0.000000 0.000000
											CHANNELS 3 Xrotation Yrotation Zrotation
											End Site
											{
												OFFSET 0.034599 3.816971 0.371180
											}
										}
									}
								}
								JOINT newVegas:RightHandMiddle1
								{
									OFFSET -18.476105 0.000000 0.000000
									CHANNELS 3 Xrotation Yrotation Zrotation
									JOINT newVegas:RightHandMiddle2
									{
										OFFSET -3.324875 0.000000 0.000000
										CHANNELS 3 Xrotation Yrotation Zrotation
										JOINT newVegas:RightHandMiddle3
										{
											OFFSET -4.596550 0.000000 0.000000
											CHANNELS 3 Xrotation Yrotation Zrotation
											End Site
											{
												OFFSET -0.057701 4.578827 0.399218
											}
										}
									}
								}
								JOINT newVegas:RightHandRing1
								{
									OFFSET -17.732719 0.121887 -4.201567
									CHANNELS 3 Xrotation Yrotation Zrotation
									JOINT newVegas:RightHandRing2
									{
										OFFSET -2.733170 0.000000 0.000000
										CHANNELS 3 Xrotation Yrotation Zrotation
										JOINT newVegas:RightHandRing3
										{
											OFFSET -3.178268 0.000000 0.000000
											CHANNELS 3 Xrotation Yrotation Zrotation
											End Site
											{
												OFFSET -0.119102 3.170624 0.185394
											}
										}
									}
								}
								JOINT newVegas:RightHandPinky1
								{
									OFFSET -15.989624 -0.606689 -7.535461
									CHANNELS 3 Xrotation Yrotation Zrotation
									JOINT newVegas:RightHandPinky2
									{
										OFFSET -2.538986 0.000000 0.000000
										CHANNELS 3 Xrotation Yrotation Zrotation
										JOINT newVegas:RightHandPinky3
										{
											OFFSET -2.593102 0.000000 0.000000
											CHANNELS 3 Xrotation Yrotation Zrotation
											End Site
											{
												OFFSET 0.150902 2.584198 0.152708
											}
										}
									}
								}
							}
							JOINT newVegas:Right_CapeC
							{
								OFFSET -15.715958 -8.608795 -6.935905
								CHANNELS 3 Xrotation Yrotation Zrotation
								JOINT newVegas:Right_CapeC1
								{
									OFFSET 0.000000 -8.688499 0.000000
									CHANNELS 3 Xrotation Yrotation Zrotation
									End Site
									{
										OFFSET 0.000000 8.688499 0.000000
									}
								}
							}
							JOINT newVegas:Right_Sleeve
							{
								OFFSET -0.267448 -0.649994 0.577675
								CHANNELS 3 Xrotation Yrotation Zrotation
								End Site
								{
									OFFSET 0.000000 15.991302 0.000000
								}
							}
						}
						JOINT newVegas:Right_CapeA
						{
							OFFSET -5.115540 -8.608795 -10.395824
							CHANNELS 3 Xrotation Yrotation Zrotation
							JOINT newVegas:Right_CapeA1
							{
								OFFSET 0.000000 -8.688499 0.000000
								CHANNELS 3 Xrotation Yrotation Zrotation
								End Site
								{
									OFFSET 0.000000 8.688499 0.000000
								}
							}
						}
						JOINT newVegas:Right_CapeB
						{
							OFFSET -26.118187 -8.608795 -7.079266
							CHANNELS 3 Xrotation Yrotation Zrotation
							JOINT newVegas:Right_CapeB1
							{
								OFFSET 0.000000 -8.688499 0.000000
								CHANNELS 3 Xrotation Yrotation Zrotation
								End Site
								{
									OFFSET 0.000000 8.688499 0.000000
								}
							}
						}
					}
				}
				JOINT newVegas:Left_Collar
				{
					OFFSET 18.625099 8.655502 8.828100
					CHANNELS 3 Xrotation Yrotation Zrotation
					JOINT newVegas:Left_Collar1
					{
						OFFSET 14.783401 10.540405 -1.259500
						CHANNELS 3 Xrotation Yrotation Zrotation
						End Site
						{
							OFFSET 0.000000 18.199875 0.000000
						}
					}
				}
				JOINT newVegas:Collar_Back
				{
					OFFSET 0.000000 15.630707 -20.132601
					CHANNELS 3 Xrotation Yrotation Zrotation
					End Site
					{
						OFFSET 0.000000 22.523010 0.000000
					}
				}
				JOINT newVegas:Left_Peck
				{
					OFFSET 17.239599 -5.132599 25.482599
					CHANNELS 3 Xrotation Yrotation Zrotation
					End Site
					{
						OFFSET 0.000000 22.523010 0.000000
					}
				}
				JOINT newVegas:Right_Peck
				{
					OFFSET -17.239599 -5.132202 25.482599
					CHANNELS 3 Xrotation Yrotation Zrotation
					End Site
					{
						OFFSET 0.000000 22.523010 0.000000
					}
				}
				JOINT newVegas:Right_Collar
				{
					OFFSET -18.625099 8.655792 8.828100
					CHANNELS 3 Xrotation Yrotation Zrotation
					JOINT newVegas:Right_Collar1
					{
						OFFSET -14.783401 10.539993 -1.259500
						CHANNELS 3 Xrotation Yrotation Zrotation
						End Site
						{
							OFFSET 0.000000 18.199631 0.000000
						}
					}
				}
			}
		}
		JOINT newVegas:Belly
		{
			OFFSET 0.000000 -6.540398 9.014299
			CHANNELS 3 Xrotation Yrotation Zrotation
			End Site
			{
				OFFSET 0.000000 11.566666 0.000000
			}
		}
	}
	JOINT newVegas:ElvisFacialAnim_Joint
	{
		OFFSET 1.000000 -95.330101 -8.825800
		CHANNELS 3 Xrotation Yrotation Zrotation
		End Site
		{
			OFFSET 0.000000 35.315800 0.000000
		}
	}
}
MOTION
Frames: 4
Frame Time: 0.033333
-1.253232 89.361694 2.917122 13.018213 -27.088402 -2.043562 -0.000000 -0.000002 0.000000 -63.346931 -5.471376 7.354017 76.358093 9.652898 -0.332352 19.893776 0.143183 -1.209351 -0.000002 0.000001 -0.000000 0.000002 -0.000001 0.000000 -32.548747 -9.522096 6.233978 33.047833 -5.642976 4.959357 -8.906725 0.764363 -5.163989 0.000000 0.000002 -0.000000 -0.000000 0.000002 -0.000001 35.870046 4.835978 7.097106 -2.874512 1.446241 -4.552578 -1.956491 -0.336171 -3.245170 -3.607581 0.847298 0.701612 -3.607574 0.847301 0.701612 0.000002 0.000000 -0.000000 -3.607567 0.847310 0.701609 -3.607561 0.847281 0.701615 -0.000000 0.000002 -0.000000 0.000002 0.000000 -0.000000 7.271364 -37.546510 22.592628 -30.351827 -11.880350 -71.435337 -0.575226 -64.740440 7.289877 -31.041731 -7.379780 3.567123 16.185513 29.318409 -23.146338 0.081683 -3.109427 31.629670 0.000002 0.000003 -0.000001 0.016560 0.020174 -62.650771 3.417409 -3.814598 -92.040487 -0.000000 0.000002 0.000004 -2.970144 0.498632 -81.883422 4.290161 -12.059108 -50.765477 0.000001 0.000005 0.000000 -10.611393 20.760901 -73.187731 4.781179 -0.851404 -40.707449 0.000001 0.000001 0.000000 -8.914859 5.703431 -58.965283 -6.266474 -4.572917 -37.196199 0.000002 -0.000001 -0.000003 -0.000001 0.000001 0.000002 -0.000001 0.000001 0.000002 -0.000001 0.000000 0.000003 0.000001 -0.000001 0.000000 0.000001 -0.000001 -0.000000 0.000001 -0.000001 0.000000 0.000001 -0.000001 0.000000 11.799987 22.166424 -20.625500 -51.880676 25.857363 71.791750 0.067044 60.920513 -18.603736 -33.190741 4.917755 14.263633 -6.666431 -8.246973 4.694921 31.152462 -25.871688 -9.425333 -0.000000 -0.000001 -0.000000 -4.888004 -9.034027 55.242601 0.234212 0.161422 104.710304 0.000001 -0.000000 0.000000 2.578509 -5.315561 71.485532 -14.334725 4.170168 107.253702 -0.000001 -0.000000 -0.000001 -9.235607 -17.082812 80.313756 0.979623 -0.049188 88.783805 -0.000002 -0.000003 -0.000000 -10.019158 -21.702574 80.947031 2.834988 1.205264 62.935508 0.000003 0.000003 0.000000 0.000001 -0.000000 0.000001 0.000001 -0.000000 0.000000 0.000001 -0.000000 0.000000 -0.000001 0.000000 -0.000000 -0.000001 0.000000 -0.000000 -0.000001 0.000000 -0.000000 -0.000001 -0.000000 -0.000000 0.000001 -0.000001 0.000001 0.000001 -0.000001 0.000001 0.000001 -0.000001 0.000001 0.000001 -0.000001 0.000001 0.000001 -0.000001 0.000001 0.000001 -0.000001 0.000001 0.000001 -0.000001 0.000001 -0.000000 0.000000 0.000000 -0.000000 -0.000002 0.000000 
-0.213728 84.880844 9.824044 12.911586 -27.733440 -0.391596 -0.000001 0.000002 -0.000000 -72.424614 -5.925801 9.634666 76.162606 11.289611 0.313886 14.279568 0.133652 -3.983546 -0.000002 -0.000000 -0.000000 -0.000001 0.000000 0.000001 -35.983247 -15.532398 -2.818119 53.831255 -4.279476 7.128638 -26.751160 -0.218686 -4.372956 0.000000 0.000000 0.000000 0.000003 -0.000002 0.000000 33.585348 4.768952 4.663045 -1.571537 2.642700 -3.948952 -0.840352 1.230150 -2.963430 -3.894568 0.789720 1.037809 -3.894576 0.789717 1.037812 0.000001 -0.000000 -0.000001 -3.894559 0.789709 1.037813 -3.894571 0.789719 1.037811 -0.000000 -0.000001 0.000000 0.000001 -0.000000 -0.000001 7.814274 -29.359623 26.252913 -43.475076 -20.943679 -69.029601 -0.507073 -53.328850 9.343785 -41.484496 -17.013095 -3.184130 16.185503 29.318416 -23.146360 0.081684 -3.109424 31.629677 -0.000000 0.000001 -0.000001 0.016544 0.020179 -62.650778 3.417412 -3.814593 -92.040474 0.000002 0.000000 -0.000001 -2.970156 0.498637 -81.883422 4.290167 -12.059102 -50.765473 0.000000 0.000000 0.000001 -10.611400 20.760922 -73.187758 4.781184 -0.851400 -40.707453 0.000000 0.000001 -0.000000 -8.914855 5.703444 -58.965289 -6.266462 -4.572912 -37.196199 0.000002 -0.000005 -0.000003 0.000001 -0.000003 -0.000000 0.000001 -0.000003 -0.000000 0.000001 -0.000003 0.000000 -0.000001 -0.000001 0.000002 -0.000001 -0.000001 0.000002 -0.000001 -0.000001 0.000002 -0.000001 -0.000000 0.000001 8.593521 18.009187 -19.096458 -60.863515 32.226940 69.969783 0.313581 56.565444 -16.286673 -39.600569 7.844366 18.545255 -6.666423 -8.246984 4.694911 31.152455 -25.871693 -9.425343 0.000003 -0.000004 0.000001 -4.888013 -9.034023 55.242604 0.234213 0.161434 104.710338 -0.000000 0.000001 0.000000 2.578503 -5.315555 71.485532 -14.334702 4.170152 107.253723 0.000000 0.000003 0.000004 -9.235599 -17.082812 80.313749 0.979606 -0.049177 88.783826 -0.000001 -0.000001 0.000003 -10.019169 -21.702593 80.947038 2.834982 1.205257 62.935460 0.000000 0.000002 -0.000001 -0.000003 -0.000000 0.000001 0.000000 -0.000001 -0.000000 -0.000003 -0.000000 0.000001 -0.000002 -0.000001 -0.000001 -0.000002 0.000000 -0.000001 -0.000002 -0.000001 -0.000001 -0.000002 -0.000000 -0.000001 -0.000002 -0.000000 0.000000 -0.000002 -0.000000 0.000000 -0.000002 -0.000000 0.000000 -0.000002 -0.000000 0.000000 -0.000002 -0.000000 0.000000 -0.000002 -0.000000 0.000000 -0.000002 -0.000000 0.000000 0.000001 -0.000001 0.000001 -0.000001 0.000002 -0.000000 
0.970079 80.466873 18.084030 11.858968 -27.206967 1.116001 -0.000000 -0.000000 0.000001 -77.772263 -5.578640 10.367885 74.228536 12.999815 -0.241609 3.776736 1.117578 -3.292820 0.000001 -0.000000 -0.000000 -0.000001 0.000000 -0.000000 -38.605271 -19.328045 -11.426321 71.653985 -10.601623 5.353983 -38.428260 -0.630806 -0.707100 0.000001 0.000003 -0.000001 0.000000 0.000000 0.000002 29.774386 4.111685 2.485067 -0.012216 3.468579 -3.137139 0.511912 2.445380 -2.547548 -4.014252 0.730214 1.139634 -4.014243 0.730207 1.139628 -0.000002 0.000000 0.000000 -4.014243 0.730204 1.139637 -4.014145 0.730193 1.139636 0.000002 -0.000001 -0.000000 -0.000002 0.000000 0.000000 8.372985 -22.812289 29.605233 -54.985769 -29.167975 -67.467441 -0.407730 -45.561620 9.760875 -43.670816 -25.716234 -0.659376 16.185489 29.318423 -23.146333 0.081693 -3.109427 31.629670 -0.000000 0.000002 -0.000001 0.016556 0.020177 -62.650764 3.417406 -3.814602 -92.040467 -0.000000 0.000000 0.000001 -2.970150 0.498631 -81.883436 4.290166 -12.059095 -50.765470 -0.000001 -0.000001 0.000000 -10.611403 20.760920 -73.187731 4.781162 -0.851393 -40.707446 0.000001 0.000001 0.000000 -8.914852 5.703429 -58.965296 -6.266469 -4.572908 -37.196186 -0.000001 -0.000003 -0.000005 0.000002 0.000002 0.000003 0.000002 0.000002 0.000003 0.000001 0.000002 0.000003 0.000001 -0.000002 -0.000002 0.000001 -0.000002 -0.000005 0.000001 -0.000002 -0.000002 0.000001 -0.000001 -0.000002 7.262605 17.303637 -22.625531 -63.109821 35.113453 65.964041 0.323349 58.714082 -19.454587 -38.917428 18.446717 20.878888 -6.666428 -8.246983 4.694895 31.152476 -25.871688 -9.425323 0.000001 -0.000006 -0.000005 -4.887998 -9.034007 55.242597 0.234203 0.161435 104.710331 -0.000001 0.000002 -0.000001 2.578513 -5.315559 71.485532 -14.334697 4.170152 107.253702 0.000001 -0.000000 0.000002 -9.235608 -17.082815 80.313742 0.979616 -0.049168 88.783846 0.000000 -0.000003 -0.000001 -10.019158 -21.702586 80.947031 2.834988 1.205272 62.935501 0.000001 0.000002 0.000000 -0.000003 0.000001 0.000001 0.000001 0.000000 0.000000 -0.000003 0.000001 0.000001 0.000004 -0.000001 0.000003 0.000004 -0.000001 0.000002 0.000004 -0.000001 0.000003 0.000004 -0.000001 0.000003 0.000001 0.000002 -0.000002 0.000001 0.000002 -0.000002 0.000001 0.000002 -0.000002 0.000001 0.000002 -0.000002 0.000001 0.000002 -0.000002 0.000001 0.000002 -0.000002 0.000001 0.000002 -0.000002 0.000001 0.000001 0.000001 -0.000000 -0.000000 0.000001 
1.667127 75.903809 28.314032 9.438118 -23.768404 0.948467 -0.000001 -0.000001 0.000000 -81.575073 -7.243784 10.491925 76.177803 10.113266 -4.151117 -9.213103 1.674384 -3.824969 -0.000001 -0.000000 0.000000 -0.000000 0.000000 -0.000000 -38.597331 -21.807558 -22.332926 85.053661 -17.664256 1.443991 -39.883244 -3.484830 9.599389 -0.000000 0.000002 -0.000000 -0.000001 -0.000002 -0.000002 24.745470 3.704050 1.942541 1.147641 3.735981 -1.834309 1.458196 3.146995 -1.515460 -3.788326 0.717133 1.139203 -3.788307 0.717137 1.139197 0.000000 0.000001 -0.000001 -3.788302 0.717127 1.139204 -3.788305 0.717153 1.139195 -0.000000 -0.000001 0.000000 0.000000 0.000001 -0.000001 8.274304 -19.850345 29.037053 -60.552188 -33.997038 -64.214276 -0.086907 -44.689935 9.240565 -40.998132 -26.905754 8.145593 16.185513 29.318403 -23.146341 0.081667 -3.109423 31.629660 0.000002 -0.000005 -0.000005 0.016557 0.020164 -62.650778 3.417402 -3.814595 -92.040474 -0.000001 -0.000001 0.000002 -2.970156 0.498639 -81.883422 4.290176 -12.059107 -50.765449 -0.000003 0.000000 -0.000000 -10.611398 20.760912 -73.187745 4.781186 -0.851382 -40.707425 0.000000 -0.000002 0.000003 -8.914859 5.703435 -58.965289 -6.266463 -4.572924 -37.196186 -0.000000 -0.000002 -0.000001 0.000002 -0.000002 0.000001 0.000002 -0.000002 0.000001 0.000001 -0.000001 0.000001 -0.000000 -0.000001 0.000003 -0.000000 -0.000002 0.000002 -0.000000 -0.000001 0.000003 -0.000000 -0.000002 0.000003 9.376956 19.482710 -27.500558 -59.973227 35.846998 57.323872 0.072253 63.504756 -25.246886 -39.028746 24.390606 15.709836 -6.666425 -8.246968 4.694906 31.152455 -25.871691 -9.425343 -0.000000 -0.000004 -0.000001 -4.888021 -9.034004 55.242584 0.234217 0.161418 104.710324 -0.000000 0.000002 0.000000 2.578505 -5.315546 71.485525 -14.334699 4.170149 107.253709 0.000000 -0.000000 -0.000001 -9.235611 -17.082776 80.313770 0.979583 -0.049177 88.783826 0.000001 0.000002 -0.000001 -10.019188 -21.702561 80.947024 2.834979 1.205258 62.935467 0.000000 0.000002 0.000000 0.000002 -0.000002 -0.000000 0.000001 -0.000001 -0.000002 0.000002 -0.000002 -0.000001 0.000001 -0.000001 0.000003 0.000001 0.000000 0.000002 0.000001 -0.000001 0.000003 0.000001 0.000000 0.000003 -0.000004 0.000000 0.000001 -0.000004 0.000000 0.000001 -0.000004 0.000000 0.000001 -0.000004 0.000000 0.000001 -0.000004 0.000000 0.000001 -0.000004 0.000000 0.000001 -0.000004 0.000000 0.000001 -0.000003 -0.000000 0.000001 -0.000001 -0.000001 0.000000 
